<?xml version="1.0" encoding="utf-8"?>
<!-- Generator: Adobe Illustrator 28.1.0, SVG Export Plug-In . SVG Version: 6.00 Build 0)  -->
<svg version="1.1" id="Layer_1" xmlns="http://www.w3.org/2000/svg" xmlns:xlink="http://www.w3.org/1999/xlink" x="0px" y="0px"
	 viewBox="0 0 612 792" style="enable-background:new 0 0 612 792;" xml:space="preserve">
<style type="text/css">
	.st0{fill:none;stroke:#010101;stroke-miterlimit:10;}
	.st1{fill:#010101;stroke:#010101;stroke-miterlimit:10;}
	.st2{fill:#FFFFFF;stroke:#010101;}
	.st3{fill:#FFFFFF;stroke:#010101;stroke-miterlimit:10;}
	.st4{fill:#010101;}
	.st5{font-family:'ArialMT';}
	.st6{font-size:11px;}
	.st7{enable-background:new    ;}
	.st8{fill:#ED1C24;}
	.st9{fill:#FFFFFF;stroke:#FFFFFF;stroke-miterlimit:10;}
	.st10{fill:none;stroke:#000000;stroke-width:2;stroke-miterlimit:10;}
	.st11{fill:#ED1C24;stroke:#ED1C24;stroke-miterlimit:10;}
</style>
<g>
	<g>
		<path pointer-events="stroke" class="st0" d="M379.72,113.9v46.54"/>
		<path pointer-events="all" class="st1" d="M379.72,163.94l-1.75-3.5l1.75,0.88l1.75-0.88L379.72,163.94z"/>
	</g>
	<g>
		<rect x="353.13" y="123.33" pointer-events="all" class="st2" width="73.84" height="28.08"/>
	</g>
	<g>
		<path pointer-events="all" class="st3" d="M439.45,57.74l61,27.88l-61,27.89l-61-27.89L439.45,57.74z"/>
	</g>
	<g>
		<path pointer-events="all" class="st3" d="M157.97,468.4l7.76-30h102.49l-7.76,30H157.97z"/>
	</g>
	<g>
		<path pointer-events="stroke" class="st0" d="M210.06,117.95l-0.02,9.98v-1.31v6.78"/>
		<path pointer-events="all" class="st1" d="M210.04,136.03l-1.75-3.5l1.75,0.88l1.75-0.88L210.04,136.03z"/>
	</g>
	<g>
		<ellipse pointer-events="all" class="st2" cx="210.06" cy="104.63" rx="18.27" ry="13.32"/>
	</g>
	<g>
		<g transform="translate(-0.5 -0.5)">
			<text transform="matrix(1 0 0 1 198.4468 108.0631)" class="st4 st5 st6">Start</text>
		</g>
	</g>
	<g>
		<path pointer-events="stroke" class="st0" d="M210.04,166.59v10.03v-0.77v6.77"/>
		<path pointer-events="all" class="st1" d="M210.04,185.25l-1.75-3.5l1.75,0.88l1.75-0.88L210.04,185.25z"/>
	</g>
	<g>
		<path pointer-events="all" class="st3" d="M124.29,166.59l12.69-30h167.68l-12.69,30H124.29z"/>
	</g>
	<g>
		<g transform="translate(-0.5 -0.5)">
			<text transform="matrix(1 0 0 1 142.1958 155.063)" class="st4 st5 st6">Input data with missing values</text>
		</g>
	</g>
	<g>
		<path pointer-events="stroke" class="st0" d="M210.04,200.81v10.04l0.01,6.27"/>
		<path pointer-events="all" class="st1" d="M210.06,219.75l-1.75-3.49l1.75,0.87l1.75-0.88L210.06,219.75z"/>
	</g>
	<g>
		<path pointer-events="stroke" class="st0" d="M149.15,193.31h-37.8v123.88"/>
		<path pointer-events="all" class="st1" d="M111.35,319.82l-1.75-3.5l1.75,0.88l1.75-0.88L111.35,319.82z"/>
	</g>
	<g>
		<rect x="149.15" y="185.81" pointer-events="all" class="st2" width="121.82" height="15"/>
	</g>
	<g>
		<g transform="translate(-0.5 -0.5)">
			<text transform="matrix(1 0 0 1 183.4595 197.063)" class="st4 st5 st6">Read input</text>
		</g>
	</g>
	<g>
		<path pointer-events="stroke" class="st0" d="M210.04,246.31v10v-4v6.82"/>
		<path pointer-events="all" class="st1" d="M210.04,261.75l-1.75-3.5l1.75,0.88l1.75-0.88L210.04,261.75z"/>
	</g>
	<g>
		<rect x="147.45" y="220.31" pointer-events="all" class="st2" width="127.89" height="26"/>
	</g>
	<g>
		<g transform="translate(-0.5 -0.5)">
			<text transform="matrix(1 0 0 1 154.9761 230.563)" class="st7"><tspan x="0" y="0" class="st4 st5 st6">Data negative shift and </tspan><tspan x="13.77" y="13.2" class="st4 st5 st6">log transformation</tspan></text>
		</g>
	</g>
	<g>
		<path pointer-events="stroke" class="st0" d="M210.06,296.31v20.88"/>
		<path pointer-events="all" class="st1" d="M210.06,319.82l-1.75-3.5l1.75,0.88l1.75-0.88L210.06,319.82z"/>
	</g>
	<g>
		<rect x="138.63" y="261.54" pointer-events="all" class="st2" width="138.92" height="34.78"/>
	</g>
	<g>
		<g transform="translate(-0.5 -0.5)">
			<text transform="matrix(1 0 0 1 170.7158 277.563)" class="st7"><tspan x="0" y="0" class="st4 st5 st6">Data filtering by</tspan><tspan x="-27.52" y="13.2" class="st4 st5 st6">column and row thresholds</tspan></text>
		</g>
	</g>
	<g>
		<path pointer-events="stroke" class="st0" d="M260.7,352.01l80.35,0.08V85.65h32.67"/>
		<path pointer-events="all" class="st1" d="M377.58,85.65l-3.85,2.81l0.96-2.81l-0.96-2.81L377.58,85.65z"/>
	</g>
	<g>
		<g transform="translate(-0.5 -0.5)">
			<text transform="matrix(1 0 0 1 308.0571 279.563)" class="st4 st5 st6">YES</text>
		</g>
	</g>
	<g>
		<path pointer-events="stroke" class="st0" d="M210.06,384.3v50.09"/>
		<path pointer-events="all" class="st1" d="M210.06,437.02l-1.75-3.5l1.75,0.88l1.75-0.88L210.06,437.02z"/>
	</g>
	<g>
		<g transform="translate(-0.5 -0.5)">
			<text transform="matrix(1 0 0 1 212.3123 414.6945)" class="st4 st5 st6">NO</text>
		</g>
	</g>
	<g>
		<path pointer-events="all" class="st3" d="M210.06,320.38l50.64,31.96l-50.64,31.96l-50.64-31.96L210.06,320.38z"/>
	</g>
	<g>
		<g transform="translate(-0.5 -0.5)">
			<text transform="matrix(1 0 0 1 186.2141 350.3541)" class="st7"><tspan x="0" y="0" class="st4 st5 st6">Imputation</tspan><tspan x="-3.67" y="13.2" class="st4 st5 st6">optimization</tspan></text>
		</g>
	</g>
	<g>
		<path pointer-events="stroke" class="st0" d="M451.37,201.22v23.41"/>
		<path pointer-events="all" class="st1" d="M451.37,227.25l-1.75-3.5l1.75,0.88l1.75-0.88L451.37,227.25z"/>
	</g>
	<g>
		<rect x="366.87" y="164.87" pointer-events="all" class="st2" width="151.41" height="44.34"/>
	</g>
	<g>
		<g transform="translate(-0.5 -0.5)">
			<text transform="matrix(1 0 0 1 370.1543 178.1105)" class="st7"><tspan x="0" y="0" class="st4 st5 st6">Generate a complete dataset</tspan><tspan x="17.44" y="13.2" class="st4 st5 st6">by removing columns </tspan><tspan x="23.55" y="26.4" class="st4 st5 st6">with missing values</tspan></text>
		</g>
	</g>
	<g>
		<path pointer-events="stroke" class="st0" d="M451.37,271.81v21.82"/>
		<path pointer-events="all" class="st1" d="M451.37,296.25l-1.75-3.5l1.75,0.88l1.75-0.88L451.37,296.25z"/>
	</g>
	<g>
		<rect x="376.33" y="227.81" pointer-events="all" class="st2" width="153.66" height="43.54"/>
	</g>
	<g>
		<g transform="translate(-0.5 -0.5)">
			<text transform="matrix(1 0 0 1 392.905 241.313)" class="st7"><tspan x="0" y="0" class="st4 st5 st6">Create missing data with </tspan><tspan x="-8.23" y="13.2" class="st4 st5 st6">MAR, MNAR, MCAR models</tspan><tspan x="20.17" y="26.4" class="st4 st5 st6">at threshold level</tspan></text>
		</g>
	</g>
	<g>
		<path pointer-events="stroke" class="st0" d="M451.37,341.81v17.82"/>
		<path pointer-events="all" class="st1" d="M451.37,362.25l-1.75-3.5l1.75,0.88l1.75-0.88L451.37,362.25z"/>
	</g>
	<g>
		<rect x="390.46" y="296.25" pointer-events="all" class="st2" width="121.82" height="45.56"/>
	</g>
	<g>
		<g transform="translate(-0.5 -0.5)">
			<text transform="matrix(1 0 0 1 402.8191 310.6871)" class="st7"><tspan x="0" y="0" class="st4 st5 st6">Impute each created</tspan><tspan x="4.9" y="13.2" class="st4 st5 st6"> missingness type </tspan><tspan x="-6.42" y="26.4" class="st4 st5 st6">dataset with 8 methods</tspan></text>
		</g>
	</g>
	<g>
		<path pointer-events="stroke" class="st0" d="M451.37,407.81v19.17"/>
		<path pointer-events="all" class="st1" d="M451.37,429.61l-1.75-3.5l1.75,0.88l1.75-0.88L451.37,429.61z"/>
	</g>
	<g>
		<path pointer-events="all" class="st3" d="M376.33,407.81l11.63-45h148.86l-11.63,45H376.33z"/>
	</g>
	<g>
		<g transform="translate(-0.5 -0.5)">
			<text transform="matrix(1 0 0 1 389.8008 377.7874)" class="st7"><tspan x="0" y="0" class="st4 st5 st6">Show error rate using MAPE</tspan><tspan x="17.72" y="13.2" class="st4 st5 st6">for each method and </tspan><tspan x="14.06" y="26.4" class="st4 st5 st6">each missingness type</tspan></text>
		</g>
	</g>
	<g>
		<g transform="translate(-0.5 -0.5)">
			<text transform="matrix(1 0 0 1 363.8669 540.4879)" class="st4 st5 st6">YES</text>
		</g>
	</g>
	<g>
		<g transform="translate(-0.5 -0.5)">
			<text transform="matrix(1 0 0 1 336.3174 474.0785)" class="st4 st5 st6">NO</text>
		</g>
	</g>
	<g>
		<path pointer-events="all" class="st3" d="M451.37,430.17l70,47.5l-70,47.5l-70.01-47.5L451.37,430.17z"/>
	</g>
	<g>
		<g transform="translate(-0.5 -0.5)">
			<text transform="matrix(1 0 0 1 434.0579 459.5437)" class="st7"><tspan x="0" y="0" class="st4 st5 st6">Propose </tspan><tspan x="-15.59" y="13.2" class="st4 st5 st6">optimal method</tspan><tspan x="-31.49" y="26.4" class="st4 st5 st6">based on optimization</tspan><tspan x="8.56" y="39.6" class="st4 st5 st6">result</tspan></text>
		</g>
	</g>
	<g>
		<path pointer-events="stroke" class="st0" d="M380.36,478.3l-61.57-0.01v-23.35h-53.43"/>
		<path pointer-events="stroke" class="st0" d="M379.36,543.52l-61.57-0.02v-45.84h-53.43"/>
		<path pointer-events="all" class="st1" d="M262.73,454.94l3.5-1.75l-0.88,1.75l0.88,1.75L262.73,454.94z"/>
	</g>
	<g>
		<path pointer-events="stroke" class="st0" d="M452,525.17l0.17,18.33l-126.32,0.01"/>
		<path pointer-events="all" class="st1" d="M260.94,497.75l3.49-1.75l-0.87,1.75l0.88,1.75L260.94,497.75z"/>
	</g>
	<g>
		<path pointer-events="stroke" class="st0" d="M212.04,505.57v9.97v6.09"/>
		<path pointer-events="all" class="st1" d="M212.04,524.25l-1.75-3.5l1.75,0.88l1.75-0.88L212.04,524.25z"/>
	</g>
	<g>
		<rect x="167.11" y="487.52" pointer-events="all" class="st2" width="91.07" height="18.14"/>
	</g>
	<g>
		<g transform="translate(-0.5 -0.5)">
			<text transform="matrix(1 0 0 1 172.1219 450.8968)" class="st7"><tspan x="0" y="0" class="st4 st5 st6">Select imputation</tspan><tspan x="23.84" y="13.2" class="st4 st5 st6">method</tspan></text>
		</g>
	</g>
	<g>
		<path pointer-events="stroke" class="st0" d="M212.06,539.81v17.82"/>
		<path pointer-events="all" class="st1" d="M212.06,560.25l-1.75-3.5l1.75,0.88l1.75-0.88L212.06,560.25z"/>
	</g>
	<g>
		<rect x="151.15" y="524.81" pointer-events="all" class="st2" width="121.82" height="15"/>
	</g>
	<g>
		<g transform="translate(-0.5 -0.5)">
			<text transform="matrix(1 0 0 1 154.8999 536.063)" class="st4 st5 st6">Reverse transformation</text>
		</g>
	</g>
	<g>
		<path pointer-events="stroke" class="st0" d="M212.06,575.81l-0.02,10.04v-2.08v6.8"/>
		<path pointer-events="all" class="st1" d="M212.04,593.19l-1.75-3.5l1.75,0.88l1.75-0.88L212.04,593.19z"/>
	</g>
	<g>
		<path pointer-events="all" class="st3" d="M151.15,575.81l10-15h111.82l-10,15H151.15z"/>
	</g>
	<g>
		<g transform="translate(-0.5 -0.5)">
			<text transform="matrix(1 0 0 1 163.1372 572.063)" class="st4 st5 st6">Imputed data output</text>
		</g>
	</g>
	<g>
		<path pointer-events="stroke" class="st0" d="M212.06,625.71v28.78"/>
		<path pointer-events="all" class="st1" d="M212.06,657.12l-1.75-3.5l1.75,0.88l1.75-0.88L212.06,657.12z"/>
	</g>
	<g>
		<rect x="151.15" y="593.75" pointer-events="all" class="st2" width="121.82" height="31.96"/>
	</g>
	<g>
		<g transform="translate(-0.5 -0.5)">
			<text transform="matrix(1 0 0 1 175.8274 607.3536)" class="st7"><tspan x="0" y="0" class="st4 st5 st6">Visualization by</tspan><tspan x="-14.05" y="13.2" class="st4 st5 st6">HCL, PCA and t-SNE</tspan></text>
		</g>
	</g>
	<g>
		<ellipse pointer-events="all" class="st2" cx="212.06" cy="670.99" rx="17.26" ry="13.32"/>
	</g>
	<g>
		<g transform="translate(-0.5 -0.5)">
			<text transform="matrix(1 0 0 1 202.2769 674.563)" class="st4 st5 st6">End</text>
		</g>
	</g>
	<g>
		<path pointer-events="stroke" class="st0" d="M110.63,369.17l0.05,240.53l35.29,0.04"/>
		<path pointer-events="all" class="st1" d="M150.59,609.73l-3.5,1.74l0.88-1.75l-0.88-1.75L150.59,609.73z"/>
	</g>
	<g>
		<rect x="64.94" y="320.38" pointer-events="all" class="st2" width="91.37" height="48.79"/>
	</g>
	<g>
		<g transform="translate(-0.5 -0.5)">
			<text transform="matrix(1 0 0 1 68.4833 334.6025)" class="st7"><tspan x="0" y="0" class="st4 st5 st6">Remove columns</tspan><tspan x="12.54" y="13.2" class="st4 st5 st6">with missing</tspan><tspan x="26.59" y="26.4" class="st4 st5 st6">values</tspan></text>
		</g>
	</g>
	<g>
		<g transform="translate(-0.5 -0.5)">
			<text transform="matrix(1 0 0 1 173.5846 500.7855)" class="st4 st5 st6">Data imputation</text>
		</g>
	</g>
	<g>
		<path pointer-events="stroke" class="st0" d="M211.79,468.4v9.97v6.08"/>
		<path pointer-events="all" class="st1" d="M211.79,487.08l-1.75-3.5l1.75,0.88l1.75-0.88L211.79,487.08z"/>
	</g>
	<g>
		<g transform="translate(-0.5 -0.5)">
			<text transform="matrix(1 0 0 1 399.4582 87.2552)" class="st7"><tspan x="0" y="0" class="st4 st5 st6">Hyperparameter</tspan><tspan x="22.31" y="13.2" class="st4 st5 st6">Search</tspan></text>
		</g>
	</g>
	<line class="st0" x1="378.87" y1="113.89" x2="500.42" y2="114.95"/>
	<g>
		<g transform="translate(-0.5 -0.5)">
			<text transform="matrix(1 0 0 1 477.4231 112.9949)" class="st4 st5 st6">YES</text>
		</g>
	</g>
	<g>
		<g transform="translate(-0.5 -0.5)">
			<text transform="matrix(1 0 0 1 379.3661 112.3891)" class="st4 st5 st6">NO</text>
		</g>
	</g>
	<g>
		<g transform="translate(-0.5 -0.5)">
			<text transform="matrix(1 0 0 1 379.2877 134.7828)" class="st7"><tspan x="0" y="0" class="st4 st5 st6">Set </tspan><tspan x="-24.16" y="13.2" class="st4 st5 st6">default values</tspan></text>
		</g>
	</g>
	<g>
		<path pointer-events="stroke" class="st0" d="M500.14,114.25v46.54"/>
		<path pointer-events="all" class="st1" d="M500.14,164.29l-1.75-3.5l1.75,0.88l1.75-0.88L500.14,164.29z"/>
	</g>
	<g>
		<rect x="453.63" y="123.33" pointer-events="all" class="st2" width="86.07" height="28.08"/>
	</g>
	<g>
		<g transform="translate(-0.5 -0.5)">
			<text transform="matrix(1 0 0 1 485.4719 134.7827)" class="st7"><tspan x="0" y="0" class="st4 st5 st6">Test </tspan><tspan x="-29.35" y="13.2" class="st4 st5 st6">hyperparameters</tspan></text>
		</g>
	</g>
</g>
<g>
	<ellipse class="st8" cx="559.35" cy="164.85" rx="7.66" ry="6.47"/>
	<ellipse class="st8" cx="558.97" cy="139.79" rx="7.66" ry="9.34"/>
	<ellipse class="st0" cx="559.09" cy="162.94" rx="11.32" ry="12.08"/>
	<ellipse class="st0" cx="559.16" cy="139.3" rx="11.32" ry="12.08"/>
	
		<rect x="556.85" y="150.13" transform="matrix(-1 -1.224647e-16 1.224647e-16 -1 1118.7013 304.0583)" class="st9" width="5" height="3.8"/>
	
		<rect x="536.98" y="165.1" transform="matrix(-1 -1.224647e-16 1.224647e-16 -1 1115.9832 342.7634)" class="st9" width="42.02" height="12.57"/>
	
		<rect x="542.22" y="125.17" transform="matrix(-1 -1.224647e-16 1.224647e-16 -1 1116.3865 262.8958)" class="st9" width="31.95" height="12.57"/>
	<line class="st10" x1="546.18" y1="138.3" x2="572.32" y2="138.3"/>
	<line class="st10" x1="545.9" y1="165.1" x2="572.04" y2="165.1"/>
	
		<rect x="549.81" y="139.79" transform="matrix(-1 -1.224647e-16 1.224647e-16 -1 1118.7616 281.8869)" class="st9" width="19.14" height="2.31"/>
	<circle class="st11" cx="559.25" cy="151.11" r="0.59"/>
	<circle class="st11" cx="559.25" cy="155.11" r="0.59"/>
	<circle class="st11" cx="559.25" cy="158.38" r="0.59"/>
</g>
</svg>
