<?xml version="1.0" encoding="UTF-8"?><svg xmlns="http://www.w3.org/2000/svg" viewBox="0 0 741.6 864"><defs><style>.d{letter-spacing:-.02em;}.e{font-family:ArialMT, Arial;font-size:18px;}.f{fill:#e6e6e6;}.f,.g,.h{stroke:#000;stroke-miterlimit:10;}.f,.h{stroke-width:2px;}.g{fill:none;stroke-width:4px;}</style></defs><g id="a"/><g id="b"/><g id="c"><rect class="f" x="156.43" y="8.5" width="97" height="39" rx="12" ry="12"/><text class="e" transform="translate(170.91 32.8)"><tspan x="0" y="0">Input file</tspan></text><g><polygon class="h" points="204.93 71.34 210.7 65.19 199.16 65.19 204.93 71.34"/><line class="g" x1="204.93" y1="54.34" x2="204.93" y2="68.34"/></g><polygon class="f" points="290.7 129.64 103.74 129.64 118.37 78.36 305.34 78.36 290.7 129.64"/><text class="e" transform="translate(120.89 100)"><tspan x="0" y="0">Select over-sampling</tspan><tspan x="47.02" y="21.6">algorithm</tspan></text><g><polygon class="h" points="204.93 153.85 210.7 147.71 199.16 147.71 204.93 153.85"/><line class="g" x1="204.93" y1="136.85" x2="204.93" y2="150.85"/></g><rect class="f" x="103.8" y="243.5" width="202" height="51"/><text class="e" transform="translate(172.79 263)"><tspan x="0" y="0">Perform</tspan><tspan x="-24.52" y="21.6">over-sampling</tspan></text><g><polygon class="h" points="204.93 318.79 210.7 312.64 199.16 312.64 204.93 318.79"/><line class="g" x1="204.93" y1="301.79" x2="204.93" y2="315.79"/></g><rect class="f" x="160.94" y="343.83" width="85.59" height="85.41" transform="translate(333 -30.85) rotate(45)"/><text class="e" transform="translate(158.22 391.34)"><tspan x="0" y="0">Normalize?</tspan></text><rect class="f" x="522.8" y="442.5" width="202" height="51"/><text class="e" transform="translate(554.27 462)"><tspan x="0" y="0">Save normalized,</tspan><tspan x="12.99" y="21.6">balanced data</tspan></text><g><polygon class="h" points="623.8 435 629.57 428.86 618.03 428.86 623.8 435"/><line class="g" x1="623.8" y1="418" x2="623.8" y2="432"/></g><g><g><polygon class="h" points="291.28 384.84 285.13 379.07 285.13 390.61 291.28 384.84"/><line class="g" x1="274.28" y1="384.84" x2="288.28" y2="384.84"/></g><text class="e" transform="translate(268.77 374.61)"><tspan x="0" y="0">yes</tspan></text></g><polygon class="f" points="481.1 416.71 294.13 416.71 308.77 352.97 495.73 352.97 481.1 416.71"/><text class="e" transform="translate(313.89 379.84)"><tspan x="0" y="0">Select normalization</tspan><tspan x="49.03" y="21.6">strategy</tspan></text><g><polygon class="h" points="515.43 384.84 509.29 379.07 509.29 390.61 515.43 384.84"/><line class="g" x1="498.43" y1="384.84" x2="512.43" y2="384.84"/></g><rect class="f" x="523.29" y="359.34" width="202" height="51"/><text class="e" transform="translate(592.28 378.84)"><tspan x="0" y="0">Perform</tspan><tspan x="-21.52" y="21.6">normalization</tspan></text><g><g><polygon class="h" points="203.93 471.44 209.7 465.29 198.16 465.29 203.93 471.44"/><line class="g" x1="203.93" y1="454.44" x2="203.93" y2="468.44"/></g><text class="e" transform="translate(214.72 466.14)"><tspan x="0" y="0">no</tspan></text></g><rect class="f" x="160.97" y="578.16" width="85.92" height="85.08" transform="translate(498.63 37.6) rotate(45)"/><text class="e" transform="translate(163.07 625.5)"><tspan class="d" x="0" y="0">V</tspan><tspan x="11.68" y="0">isualize?</tspan></text><g><polygon class="h" points="203.93 553.47 209.7 547.33 198.16 547.33 203.93 553.47"/><line class="g" x1="203.93" y1="536.47" x2="203.93" y2="550.47"/></g><rect class="f" x="34.8" y="713.5" width="336" height="51"/><text class="e" transform="translate(63.25 733)"><tspan x="0" y="0">Perform PCA, t-SNE, t-test on data</tspan><tspan x="25.99" y="21.6">before &amp; after over-sampling</tspan></text><rect class="f" x="36.3" y="798.5" width="335" height="51"/><text class="e" transform="translate(60.25 818)"><tspan x="0" y="0">Perform random forest classification</tspan><tspan x="-2.53" y="21.6">on data before &amp; after over-sampling</tspan></text><g><polygon class="h" points="203.93 789.76 209.7 783.62 198.16 783.62 203.93 789.76"/><line class="g" x1="203.93" y1="772.76" x2="203.93" y2="786.76"/></g><g><polygon class="h" points="26.74 824 20.6 818.23 20.6 829.77 26.74 824"/><line class="g" x1="9.74" y1="824" x2="23.74" y2="824"/></g><g><line class="g" x1="7.8" y1="620" x2="8.31" y2="826"/><line class="g" x1="133.8" y1="621" x2="5.8" y2="621"/><text class="e" transform="translate(62.27 614.71)"><tspan x="0" y="0">no</tspan></text></g><g><polygon class="h" points="203.93 553.47 209.7 547.33 198.16 547.33 203.93 553.47"/><line class="g" x1="203.93" y1="536.47" x2="203.93" y2="550.47"/></g><g><g><polygon class="h" points="203.93 705.42 209.7 699.28 198.16 699.28 203.93 705.42"/><line class="g" x1="203.93" y1="688.42" x2="203.93" y2="702.42"/></g><text class="e" transform="translate(214.72 700.12)"><tspan x="0" y="0">yes</tspan></text></g><rect class="f" x="103.8" y="161.14" width="202" height="51"/><text class="e" transform="translate(144.28 180.65)"><tspan x="0" y="0">Impute missing</tspan><tspan x="-5.5" y="21.6">values with KNN</tspan></text><g><polygon class="h" points="204.59 236.43 210.36 230.29 198.82 230.29 204.59 236.43"/><line class="g" x1="204.59" y1="219.43" x2="204.59" y2="233.43"/></g><rect class="f" x="102.8" y="478.5" width="202" height="51"/><text class="e" transform="translate(183.29 498)"><tspan x="0" y="0">Save</tspan><tspan x="-36.04" y="21.6">balanced data</tspan></text><polygon class="h" points="274.34 620.62 280.48 614.84 280.48 626.39 274.34 620.62"/><g><line class="g" x1="629.8" y1="623" x2="276.38" y2="620.62"/><line class="g" x1="626.8" y1="501" x2="627.8" y2="623"/></g></g></svg>