<svg id="Layer_1" data-name="Layer 1" xmlns="http://www.w3.org/2000/svg" viewBox="0 0 250 125.5"><defs><style>.cls-1{font-size:12px;font-family:ArialMT, Arial;}.cls-2{fill:none;stroke:#000;stroke-miterlimit:10;}</style></defs><text class="cls-1" transform="translate(18.16 37.9)">y</text><text class="cls-1" transform="translate(24.16 41.9) scale(0.58)">1</text><text class="cls-1" transform="translate(18.16 63.39)">y</text><text class="cls-1" transform="translate(24.16 67.39) scale(0.58)">2</text><text class="cls-1" transform="translate(18.16 90.39)">y</text><text class="cls-1" transform="translate(24.16 94.39) scale(0.58)">3</text><text class="cls-1" transform="translate(18.16 116.39)">y</text><text class="cls-1" transform="translate(24.16 120.39) scale(0.58)">n</text><text class="cls-1" transform="translate(71.17 37.9)">x</text><text class="cls-1" transform="translate(77.17 41.9) scale(0.58)">1,1</text><text class="cls-1" transform="translate(71.17 63.39)">x</text><text class="cls-1" transform="translate(77.17 67.39) scale(0.58)">2,1</text><text class="cls-1" transform="translate(71.17 90.39)">x</text><text class="cls-1" transform="translate(77.17 94.39) scale(0.58)">3,1</text><text class="cls-1" transform="translate(71.17 116.39)">x</text><text class="cls-1" transform="translate(77.17 120.39) scale(0.58)">n,1</text><text class="cls-1" transform="translate(138.71 37.9)">x</text><text class="cls-1" transform="translate(144.71 41.9) scale(0.58)">1,2</text><text class="cls-1" transform="translate(138.71 63.39)">x</text><text class="cls-1" transform="translate(144.71 67.39) scale(0.58)">2,2</text><text class="cls-1" transform="translate(138.71 90.39)">x</text><text class="cls-1" transform="translate(144.71 94.39) scale(0.58)">3,2</text><text class="cls-1" transform="translate(138.71 116.39)">x</text><text class="cls-1" transform="translate(144.71 120.39) scale(0.58)">n,2</text><text class="cls-1" transform="translate(206.4 37.9)">x</text><text class="cls-1" transform="translate(212.4 41.9) scale(0.58)">1,m</text><text class="cls-1" transform="translate(206.4 63.39)">x</text><text class="cls-1" transform="translate(212.4 67.39) scale(0.58)">2,m</text><text class="cls-1" transform="translate(206.4 90.39)">x</text><text class="cls-1" transform="translate(212.4 94.39) scale(0.58)">3,m</text><text class="cls-1" transform="translate(206.4 116.39)">x</text><text class="cls-1" transform="translate(212.4 120.39) scale(0.58)">n,m</text><text class="cls-1" transform="translate(8.42 15.02)">Label</text><text class="cls-1" transform="translate(53.35 15.02)">Feature 1</text><text class="cls-1" transform="translate(120.89 15.02)">Feature 2</text><text class="cls-1" transform="translate(187.89 15.02)">Feature m</text><line class="cls-2" y1="23" x2="250" y2="23"/><line class="cls-2" y1="49" x2="250" y2="49"/><line class="cls-2" y1="75" x2="250" y2="75"/><line class="cls-2" y1="101" x2="250" y2="101"/><line class="cls-2" x1="46.5" x2="46.5" y2="125.5"/><line class="cls-2" x1="113.45" x2="113.45" y2="125.5"/><line class="cls-2" x1="181.56" x2="181.56" y2="125.5"/></svg>